# xmcd
#
# Track frame offsets: 
#        150
#        13368
#        25241
#        37905
#        51834
#        61944
#        73303
#        84473
#        95049
#        106136
#        115438
#        130308
#        139760
#        150926
#        162606
#        173309
#        183473
#        195283
#        211675
#        221877
#
# Disc length: 3133 seconds
#
# Revision: 1
# Processed by: cddbd v1.5.2PL0 Copyright (c) Steve Scherf et al.
# Submitted via: ExactAudioCopyFreeDBPlugin 1.0
#
DISCID=170c3b14
DTITLE=Various Artist - Philadelphia Doo Wop [Collectables]
DYEAR=2004
DGENRE=Rhythm and Blues
TTITLE0=Lee Andrews and The Hearts - Long Lonely Nights
TTITLE1=Little Jimmy Rivers and The Tops - Puppy Love
TTITLE2=The Silhouettes - Get a Job
TTITLE3=The Sensations - Let Me In
TTITLE4=Little Joe Cook and The Thrillers - I Love You for Sentimental R
TTITLE4=easons
TTITLE5=Anthony and The Sophomores - Play Those Oldies Mr. DJ
TTITLE6=The Superiors - Lost Love
TTITLE7=The Swans - My True Love
TTITLE8=Patti LaBelle and The Bluebells - I Sold My Heart to the Junkman
TTITLE9=The Bosstones (Philadelphia doo wop group - Mopity Mope
TTITLE10=The Capris - God Only Knows
TTITLE11=Patty and The Emblems - Mixed Up Shook Up Girl
TTITLE12=The Fabulaires - While Walking
TTITLE13=The Fashions - Dreaming of you
TTITLE14=Lee Andrews and The Hearts - Teardrops
TTITLE15=The Hide-A-Ways - Can't Help Loving That Girl of Mine
TTITLE16=The Turbans - Sister Sookey
TTITLE17=The Capris - It Was Moonglow
TTITLE18=The Silhouettes - Bing Bong
TTITLE19=The Turbans - When You Dance
EXTD=
EXTT0=
EXTT1=
EXTT2=
EXTT3=
EXTT4=
EXTT5=
EXTT6=
EXTT7=
EXTT8=
EXTT9=
EXTT10=
EXTT11=
EXTT12=
EXTT13=
EXTT14=
EXTT15=
EXTT16=
EXTT17=
EXTT18=
EXTT19=
PLAYORDER=
